<?xml version="1.0" encoding="UTF-8"?>
<svg xmlns="http://www.w3.org/2000/svg" xmlns:xlink="http://www.w3.org/1999/xlink" width="174.059pt" height="172.227pt" viewBox="0 0 174.059 172.227" version="1.2">
<defs>
<g>
<symbol overflow="visible" id="glyph0-0">
<path style="stroke:none;" d=""/>
</symbol>
<symbol overflow="visible" id="glyph0-1">
<path style="stroke:none;" d="M 7.328125 -4.3125 C 7.328125 -5.90625 6.28125 -6.984375 4.796875 -6.984375 C 2.671875 -6.984375 0.484375 -4.734375 0.484375 -2.421875 C 0.484375 -0.78125 1.59375 0.21875 3.015625 0.21875 C 5.125 0.21875 7.328125 -1.953125 7.328125 -4.3125 Z M 3.078125 -0.046875 C 2.09375 -0.046875 1.40625 -0.84375 1.40625 -2.15625 C 1.40625 -2.578125 1.546875 -4.03125 2.3125 -5.1875 C 2.984375 -6.21875 3.96875 -6.734375 4.75 -6.734375 C 5.5625 -6.734375 6.453125 -6.1875 6.453125 -4.703125 C 6.453125 -4 6.1875 -2.453125 5.203125 -1.234375 C 4.71875 -0.625 3.90625 -0.046875 3.078125 -0.046875 Z M 3.078125 -0.046875 "/>
</symbol>
<symbol overflow="visible" id="glyph0-2">
<path style="stroke:none;" d="M 3.3125 -2.984375 C 3.375 -3.25 3.59375 -4.15625 4.296875 -4.15625 C 4.34375 -4.15625 4.578125 -4.15625 4.78125 -4.03125 C 4.5 -3.984375 4.3125 -3.734375 4.3125 -3.5 C 4.3125 -3.34375 4.421875 -3.15625 4.6875 -3.15625 C 4.90625 -3.15625 5.21875 -3.328125 5.21875 -3.71875 C 5.21875 -4.234375 4.640625 -4.375 4.296875 -4.375 C 3.71875 -4.375 3.375 -3.859375 3.265625 -3.625 C 3.015625 -4.28125 2.484375 -4.375 2.1875 -4.375 C 1.15625 -4.375 0.59375 -3.09375 0.59375 -2.859375 C 0.59375 -2.75 0.6875 -2.75 0.71875 -2.75 C 0.796875 -2.75 0.828125 -2.78125 0.84375 -2.859375 C 1.171875 -3.90625 1.828125 -4.15625 2.171875 -4.15625 C 2.359375 -4.15625 2.703125 -4.078125 2.703125 -3.5 C 2.703125 -3.1875 2.53125 -2.53125 2.171875 -1.140625 C 2.015625 -0.53125 1.671875 -0.109375 1.234375 -0.109375 C 1.171875 -0.109375 0.9375 -0.109375 0.734375 -0.234375 C 0.984375 -0.28125 1.203125 -0.5 1.203125 -0.765625 C 1.203125 -1.046875 0.984375 -1.125 0.828125 -1.125 C 0.53125 -1.125 0.28125 -0.859375 0.28125 -0.546875 C 0.28125 -0.09375 0.78125 0.109375 1.21875 0.109375 C 1.875 0.109375 2.234375 -0.578125 2.265625 -0.640625 C 2.375 -0.28125 2.734375 0.109375 3.328125 0.109375 C 4.34375 0.109375 4.90625 -1.171875 4.90625 -1.421875 C 4.90625 -1.515625 4.828125 -1.515625 4.796875 -1.515625 C 4.703125 -1.515625 4.6875 -1.46875 4.671875 -1.40625 C 4.34375 -0.34375 3.671875 -0.109375 3.34375 -0.109375 C 2.96875 -0.109375 2.796875 -0.421875 2.796875 -0.765625 C 2.796875 -0.984375 2.859375 -1.203125 2.96875 -1.640625 Z M 3.3125 -2.984375 "/>
</symbol>
<symbol overflow="visible" id="glyph0-3">
<path style="stroke:none;" d="M 4.8125 -3.78125 C 4.859375 -3.90625 4.859375 -3.9375 4.859375 -4 C 4.859375 -4.1875 4.71875 -4.265625 4.5625 -4.265625 C 4.46875 -4.265625 4.3125 -4.203125 4.21875 -4.0625 C 4.203125 -4.015625 4.125 -3.703125 4.078125 -3.53125 C 4.015625 -3.265625 3.9375 -3 3.890625 -2.734375 L 3.4375 -0.953125 C 3.390625 -0.796875 2.96875 -0.109375 2.3125 -0.109375 C 1.8125 -0.109375 1.703125 -0.546875 1.703125 -0.90625 C 1.703125 -1.359375 1.875 -1.984375 2.203125 -2.859375 C 2.375 -3.265625 2.40625 -3.375 2.40625 -3.5625 C 2.40625 -4.015625 2.09375 -4.375 1.59375 -4.375 C 0.65625 -4.375 0.28125 -2.9375 0.28125 -2.859375 C 0.28125 -2.75 0.390625 -2.75 0.40625 -2.75 C 0.5 -2.75 0.515625 -2.78125 0.5625 -2.9375 C 0.828125 -3.859375 1.234375 -4.15625 1.5625 -4.15625 C 1.640625 -4.15625 1.8125 -4.15625 1.8125 -3.84375 C 1.8125 -3.59375 1.71875 -3.34375 1.640625 -3.15625 C 1.25 -2.09375 1.0625 -1.53125 1.0625 -1.0625 C 1.0625 -0.1875 1.6875 0.109375 2.28125 0.109375 C 2.671875 0.109375 3 -0.0625 3.28125 -0.34375 C 3.15625 0.171875 3.03125 0.65625 2.640625 1.1875 C 2.375 1.53125 2 1.8125 1.546875 1.8125 C 1.40625 1.8125 0.953125 1.78125 0.796875 1.390625 C 0.953125 1.390625 1.078125 1.390625 1.21875 1.28125 C 1.3125 1.1875 1.421875 1.0625 1.421875 0.875 C 1.421875 0.5625 1.15625 0.53125 1.046875 0.53125 C 0.828125 0.53125 0.5 0.6875 0.5 1.171875 C 0.5 1.671875 0.9375 2.03125 1.546875 2.03125 C 2.5625 2.03125 3.59375 1.125 3.859375 0.015625 Z M 4.8125 -3.78125 "/>
</symbol>
<symbol overflow="visible" id="glyph0-4">
<path style="stroke:none;" d="M 3.703125 -6 C 3.796875 -6.359375 3.828125 -6.453125 4.609375 -6.453125 C 4.84375 -6.453125 4.921875 -6.453125 4.921875 -6.640625 C 4.921875 -6.765625 4.8125 -6.765625 4.78125 -6.765625 C 4.484375 -6.765625 3.75 -6.734375 3.46875 -6.734375 C 3.171875 -6.734375 2.453125 -6.765625 2.15625 -6.765625 C 2.078125 -6.765625 1.953125 -6.765625 1.953125 -6.5625 C 1.953125 -6.453125 2.046875 -6.453125 2.234375 -6.453125 C 2.640625 -6.453125 2.90625 -6.453125 2.90625 -6.265625 C 2.90625 -6.21875 2.90625 -6.203125 2.890625 -6.109375 L 1.5625 -0.765625 C 1.46875 -0.40625 1.4375 -0.3125 0.65625 -0.3125 C 0.421875 -0.3125 0.34375 -0.3125 0.34375 -0.109375 C 0.34375 0 0.453125 0 0.484375 0 C 0.765625 0 1.5 -0.03125 1.78125 -0.03125 C 2.078125 -0.03125 2.8125 0 3.109375 0 C 3.1875 0 3.3125 0 3.3125 -0.1875 C 3.3125 -0.3125 3.234375 -0.3125 3.015625 -0.3125 C 2.828125 -0.3125 2.78125 -0.3125 2.578125 -0.328125 C 2.375 -0.34375 2.34375 -0.390625 2.34375 -0.5 C 2.34375 -0.578125 2.359375 -0.65625 2.375 -0.71875 Z M 3.703125 -6 "/>
</symbol>
<symbol overflow="visible" id="glyph1-0">
<path style="stroke:none;" d=""/>
</symbol>
<symbol overflow="visible" id="glyph1-1">
<path style="stroke:none;" d="M 6.53125 -2.28125 C 6.703125 -2.28125 6.875 -2.28125 6.875 -2.484375 C 6.875 -2.671875 6.703125 -2.671875 6.53125 -2.671875 L 1.171875 -2.671875 C 1 -2.671875 0.828125 -2.671875 0.828125 -2.484375 C 0.828125 -2.28125 1 -2.28125 1.171875 -2.28125 Z M 6.53125 -2.28125 "/>
</symbol>
<symbol overflow="visible" id="glyph2-0">
<path style="stroke:none;" d=""/>
</symbol>
<symbol overflow="visible" id="glyph2-1">
<path style="stroke:none;" d="M 2.90625 -6.34375 C 2.90625 -6.578125 2.90625 -6.59375 2.6875 -6.59375 C 2.078125 -5.96875 1.203125 -5.96875 0.875 -5.96875 L 0.875 -5.65625 C 1.078125 -5.65625 1.671875 -5.65625 2.171875 -5.90625 L 2.171875 -0.78125 C 2.171875 -0.421875 2.15625 -0.3125 1.265625 -0.3125 L 0.9375 -0.3125 L 0.9375 0 C 1.28125 -0.03125 2.15625 -0.03125 2.546875 -0.03125 C 2.9375 -0.03125 3.796875 -0.03125 4.15625 0 L 4.15625 -0.3125 L 3.828125 -0.3125 C 2.9375 -0.3125 2.90625 -0.421875 2.90625 -0.78125 Z M 2.90625 -6.34375 "/>
</symbol>
<symbol overflow="visible" id="glyph2-2">
<path style="stroke:none;" d="M 1.265625 -0.765625 L 2.3125 -1.78125 C 3.859375 -3.15625 4.453125 -3.6875 4.453125 -4.671875 C 4.453125 -5.8125 3.5625 -6.59375 2.34375 -6.59375 C 1.234375 -6.59375 0.5 -5.6875 0.5 -4.796875 C 0.5 -4.25 0.984375 -4.25 1.015625 -4.25 C 1.1875 -4.25 1.53125 -4.375 1.53125 -4.78125 C 1.53125 -5.03125 1.359375 -5.296875 1.015625 -5.296875 C 0.9375 -5.296875 0.90625 -5.296875 0.875 -5.28125 C 1.109375 -5.921875 1.640625 -6.296875 2.21875 -6.296875 C 3.125 -6.296875 3.546875 -5.484375 3.546875 -4.671875 C 3.546875 -3.890625 3.046875 -3.09375 2.5 -2.484375 L 0.609375 -0.359375 C 0.5 -0.25 0.5 -0.234375 0.5 0 L 4.171875 0 L 4.453125 -1.71875 L 4.203125 -1.71875 C 4.15625 -1.421875 4.078125 -0.984375 3.984375 -0.84375 C 3.90625 -0.765625 3.265625 -0.765625 3.046875 -0.765625 Z M 1.265625 -0.765625 "/>
</symbol>
<symbol overflow="visible" id="glyph2-3">
<path style="stroke:none;" d="M 2.875 -3.484375 C 3.6875 -3.75 4.265625 -4.453125 4.265625 -5.234375 C 4.265625 -6.046875 3.390625 -6.59375 2.4375 -6.59375 C 1.4375 -6.59375 0.6875 -6 0.6875 -5.25 C 0.6875 -4.921875 0.90625 -4.734375 1.1875 -4.734375 C 1.5 -4.734375 1.6875 -4.953125 1.6875 -5.234375 C 1.6875 -5.734375 1.234375 -5.734375 1.078125 -5.734375 C 1.390625 -6.21875 2.046875 -6.34375 2.390625 -6.34375 C 2.796875 -6.34375 3.34375 -6.125 3.34375 -5.234375 C 3.34375 -5.125 3.328125 -4.546875 3.078125 -4.109375 C 2.78125 -3.640625 2.4375 -3.609375 2.1875 -3.59375 C 2.109375 -3.59375 1.875 -3.5625 1.796875 -3.5625 C 1.71875 -3.5625 1.65625 -3.546875 1.65625 -3.453125 C 1.65625 -3.34375 1.71875 -3.34375 1.890625 -3.34375 L 2.328125 -3.34375 C 3.140625 -3.34375 3.5 -2.671875 3.5 -1.6875 C 3.5 -0.34375 2.828125 -0.0625 2.390625 -0.0625 C 1.96875 -0.0625 1.21875 -0.234375 0.875 -0.8125 C 1.21875 -0.765625 1.53125 -0.984375 1.53125 -1.359375 C 1.53125 -1.71875 1.265625 -1.90625 0.96875 -1.90625 C 0.734375 -1.90625 0.421875 -1.765625 0.421875 -1.34375 C 0.421875 -0.4375 1.34375 0.21875 2.421875 0.21875 C 3.625 0.21875 4.53125 -0.6875 4.53125 -1.6875 C 4.53125 -2.5 3.90625 -3.28125 2.875 -3.484375 Z M 2.875 -3.484375 "/>
</symbol>
<symbol overflow="visible" id="glyph2-4">
<path style="stroke:none;" d="M 4.453125 -1.984375 C 4.453125 -3.171875 3.640625 -4.15625 2.5625 -4.15625 C 2.09375 -4.15625 1.671875 -4 1.3125 -3.65625 L 1.3125 -5.59375 C 1.5 -5.53125 1.828125 -5.453125 2.15625 -5.453125 C 3.375 -5.453125 4.0625 -6.359375 4.0625 -6.484375 C 4.0625 -6.546875 4.03125 -6.59375 3.96875 -6.59375 C 3.953125 -6.59375 3.9375 -6.59375 3.890625 -6.5625 C 3.6875 -6.484375 3.203125 -6.28125 2.53125 -6.28125 C 2.140625 -6.28125 1.6875 -6.34375 1.21875 -6.5625 C 1.140625 -6.59375 1.125 -6.59375 1.09375 -6.59375 C 1 -6.59375 1 -6.515625 1 -6.34375 L 1 -3.421875 C 1 -3.234375 1 -3.15625 1.140625 -3.15625 C 1.203125 -3.15625 1.234375 -3.1875 1.265625 -3.25 C 1.375 -3.40625 1.75 -3.9375 2.546875 -3.9375 C 3.0625 -3.9375 3.3125 -3.484375 3.390625 -3.3125 C 3.546875 -2.9375 3.5625 -2.5625 3.5625 -2.0625 C 3.5625 -1.71875 3.5625 -1.125 3.328125 -0.703125 C 3.09375 -0.3125 2.71875 -0.0625 2.265625 -0.0625 C 1.546875 -0.0625 0.984375 -0.578125 0.8125 -1.171875 C 0.84375 -1.15625 0.875 -1.15625 0.984375 -1.15625 C 1.3125 -1.15625 1.46875 -1.390625 1.46875 -1.640625 C 1.46875 -1.875 1.3125 -2.125 0.984375 -2.125 C 0.84375 -2.125 0.5 -2.046875 0.5 -1.59375 C 0.5 -0.75 1.171875 0.21875 2.28125 0.21875 C 3.4375 0.21875 4.453125 -0.734375 4.453125 -1.984375 Z M 4.453125 -1.984375 "/>
</symbol>
</g>
<clipPath id="clip1">
  <path d="M 5.835938 125 L 85 125 L 85 165.542969 L 5.835938 165.542969 Z M 5.835938 125 "/>
</clipPath>
<clipPath id="clip2">
  <path d="M 84 7.65625 L 163.722656 7.65625 L 163.722656 48 L 84 48 Z M 84 7.65625 "/>
</clipPath>
<clipPath id="clip3">
  <path d="M 5.835938 7.65625 L 163.722656 7.65625 L 163.722656 165.542969 L 5.835938 165.542969 Z M 5.835938 7.65625 "/>
</clipPath>
</defs>
<g id="surface1">
<path style="fill:none;stroke-width:0.39851;stroke-linecap:round;stroke-linejoin:round;stroke:rgb(0%,0%,0%);stroke-opacity:1;stroke-miterlimit:10;" d="M -39.685512 -0.00181813 L 117.0636 -0.00181813 " transform="matrix(0.994623,0,0,-0.994623,45.308055,145.806785)"/>
<path style=" stroke:none;fill-rule:nonzero;fill:rgb(0%,0%,0%);fill-opacity:1;" d="M 163.722656 145.808594 L 160.550781 144.222656 L 161.742188 145.808594 L 160.550781 147.390625 "/>
<g style="fill:rgb(0%,0%,0%);fill-opacity:1;">
  <use xlink:href="#glyph0-1" x="46.29671" y="154.096967"/>
</g>
<g style="fill:rgb(0%,0%,0%);fill-opacity:1;">
  <use xlink:href="#glyph0-2" x="158.519012" y="154.458015"/>
</g>
<path style="fill:none;stroke-width:0.39851;stroke-linecap:round;stroke-linejoin:round;stroke:rgb(0%,0%,0%);stroke-opacity:1;stroke-miterlimit:10;" d="M 0.000541651 -19.842881 L 0.000541651 136.906231 " transform="matrix(0.994623,0,0,-0.994623,45.308055,145.806785)"/>
<path style=" stroke:none;fill-rule:nonzero;fill:rgb(0%,0%,0%);fill-opacity:1;" d="M 45.308594 7.65625 L 43.722656 10.828125 L 45.308594 9.636719 L 46.894531 10.828125 "/>
<g style="fill:rgb(0%,0%,0%);fill-opacity:1;">
  <use xlink:href="#glyph0-3" x="37.387873" y="13.285225"/>
</g>
<path style=" stroke:none;fill-rule:nonzero;fill:rgb(0%,0%,0%);fill-opacity:1;" d="M 46 145.808594 C 46 145.421875 45.691406 145.113281 45.308594 145.113281 C 44.925781 145.113281 44.613281 145.421875 44.613281 145.808594 C 44.613281 146.191406 44.925781 146.5 45.308594 146.5 C 45.691406 146.5 46 146.191406 46 145.808594 Z M 85.472656 86.597656 C 85.472656 86.214844 85.164062 85.90625 84.78125 85.90625 C 84.394531 85.90625 84.085938 86.214844 84.085938 86.597656 C 84.085938 86.984375 84.394531 87.292969 84.78125 87.292969 C 85.164062 87.292969 85.472656 86.984375 85.472656 86.597656 Z M 85.472656 86.597656 "/>
<g style="fill:rgb(0%,0%,0%);fill-opacity:1;">
  <use xlink:href="#glyph0-4" x="87.118021" y="94.890052"/>
</g>
<g clip-path="url(#clip1)" clip-rule="nonzero">
<path style="fill:none;stroke-width:0.39851;stroke-linecap:round;stroke-linejoin:round;stroke:rgb(0%,0%,0%);stroke-opacity:1;stroke-miterlimit:10;" d="M -59.526575 -43.654514 C -59.526575 -43.654514 -58.80394 -42.95937 -58.529024 -42.692308 C -58.250181 -42.429175 -57.806388 -42.001092 -57.527545 -41.734031 C -57.248702 -41.46697 -56.804909 -41.042814 -56.526066 -40.775753 C -56.25115 -40.512619 -55.803431 -40.084536 -55.528515 -39.821402 C -55.249672 -39.554341 -54.805879 -39.130186 -54.527036 -38.863125 C -54.248193 -38.599991 -53.8044 -38.171908 -53.525557 -37.908774 C -53.250641 -37.641713 -52.802921 -37.217557 -52.528006 -36.954424 C -52.249162 -36.687363 -51.80537 -36.263207 -51.526527 -36.000073 C -51.247684 -35.73694 -50.803891 -35.312784 -50.525048 -35.04965 C -50.250132 -34.786517 -49.802412 -34.362361 -49.527496 -34.099227 C -49.248653 -33.832166 -48.804861 -33.411938 -48.526018 -33.148804 C -48.251102 -32.885671 -47.803382 -32.461515 -47.528466 -32.198381 C -47.249623 -31.935247 -46.80583 -31.515019 -46.526987 -31.251885 C -46.248144 -30.988752 -45.804352 -30.568523 -45.525508 -30.30539 C -45.250593 -30.042256 -44.802873 -29.622028 -44.527957 -29.358894 C -44.249114 -29.09576 -43.805321 -28.675532 -43.526478 -28.416326 C -43.247635 -28.153192 -42.803842 -27.732964 -42.524999 -27.473757 C -42.250083 -27.210624 -41.802364 -26.794323 -41.527448 -26.531189 C -41.248605 -26.271983 -40.804812 -25.851754 -40.525969 -25.592548 C -40.247126 -25.333342 -39.803333 -24.913113 -39.52449 -24.653907 C -39.249574 -24.394701 -38.801854 -23.9784 -38.526939 -23.719194 C -38.248095 -23.459987 -37.804303 -23.043686 -37.52546 -22.78448 C -37.246617 -22.525274 -36.802824 -22.108973 -36.527908 -21.849766 C -36.249065 -21.59056 -35.805273 -21.178186 -35.526429 -20.91898 C -35.247586 -20.659774 -34.803794 -20.2474 -34.524951 -19.988194 C -34.250035 -19.732915 -33.802315 -19.320541 -33.527399 -19.061335 C -33.248556 -18.806056 -32.804763 -18.393683 -32.52592 -18.134476 C -32.247077 -17.879197 -31.803285 -17.466824 -31.524441 -17.211545 C -31.249526 -16.956266 -30.801806 -16.54782 -30.52689 -16.292541 C -30.248047 -16.037262 -29.804254 -15.624888 -29.525411 -15.373537 C -29.246568 -15.118258 -28.802775 -14.709811 -28.523932 -14.454532 C -28.249017 -14.203181 -27.801297 -13.794735 -27.526381 -13.539456 C -27.247538 -13.288104 -26.803745 -12.883585 -26.524902 -12.628306 C -26.246059 -12.376955 -25.802266 -11.972436 -25.52735 -11.721084 C -25.248507 -11.469733 -24.804715 -11.065214 -24.525872 -10.813862 C -24.247028 -10.562511 -23.803236 -10.161919 -23.524393 -9.910568 C -23.249477 -9.663143 -22.801757 -9.262552 -22.526841 -9.0112 C -22.247998 -8.763776 -21.804206 -8.363185 -21.525362 -8.11576 C -21.246519 -7.868336 -20.802727 -7.467745 -20.523884 -7.220321 C -20.248968 -6.972896 -19.801248 -6.576232 -19.526332 -6.332735 C -19.247489 -6.085311 -18.803696 -5.692574 -18.524853 -5.44515 C -18.24601 -5.201653 -17.802218 -4.808917 -17.523374 -4.56542 C -17.248459 -4.321923 -16.800739 -3.929186 -16.525823 -3.685689 C -16.24698 -3.442193 -15.803187 -3.05731 -15.524344 -2.813814 C -15.245501 -2.574244 -14.801708 -2.185435 -14.526793 -1.945865 C -14.24795 -1.702368 -13.804157 -1.321414 -13.525314 -1.081844 C -13.246471 -0.842275 -12.802678 -0.46132 -12.523835 -0.221751 C -12.248919 0.0138913 -11.801199 0.394846 -11.526283 0.630488 C -11.24744 0.86613 -10.803648 1.243158 -10.524805 1.474872 C -10.245962 1.710514 -9.802169 2.083614 -9.523326 2.315329 C -9.24841 2.547044 -8.80069 2.920144 -8.525774 3.151858 C -8.246931 3.383573 -7.803139 3.748818 -7.524295 3.976606 C -7.245452 4.204393 -6.80166 4.569638 -6.522817 4.797426 C -6.247901 5.025213 -5.800181 5.386531 -5.525265 5.610391 C -5.246422 5.834251 -4.802629 6.191641 -4.523786 6.411574 C -4.244943 6.631506 -3.801151 6.98497 -3.522307 7.204902 C -3.247392 7.424835 -2.803599 7.774371 -2.524756 7.990376 C -2.245913 8.206381 -1.80212 8.548062 -1.523277 8.764067 C -1.248361 8.976145 -0.800641 9.317826 -0.525726 9.525977 C -0.246883 9.738055 0.19691 10.071881 0.475753 10.276104 C 0.754596 10.484254 1.198389 10.810226 1.477232 11.010522 C 1.752148 11.214745 2.199868 11.536789 2.474784 11.737085 C 2.753627 11.937381 3.197419 12.247643 3.476262 12.444011 C 3.755105 12.636452 4.198898 12.946714 4.477741 13.135228 C 4.752657 13.323742 5.200377 13.626149 5.475293 13.806808 C 5.754136 13.991394 6.197928 14.282019 6.476772 14.462678 C 6.755615 14.63941 7.199407 14.918253 7.47825 15.091057 C 7.753166 15.263861 8.196959 15.53485 8.475802 15.699799 C 8.754645 15.868676 9.198438 16.127882 9.477281 16.284977 C 9.752196 16.442072 10.199916 16.689496 10.474832 16.838736 C 10.753675 16.987976 11.197468 17.219691 11.476311 17.361076 C 11.755154 17.498534 12.198947 17.718466 12.47779 17.84807 C 12.752706 17.977673 13.200426 18.177968 13.475341 18.295789 C 13.754184 18.413611 14.197977 18.594269 14.47682 18.700308 C 14.755663 18.806347 15.199456 18.963442 15.478299 19.053771 C 15.753215 19.144101 16.200935 19.277631 16.47585 19.352251 C 16.754694 19.426871 17.198486 19.536838 17.477329 19.591821 C 17.756172 19.646804 18.199965 19.717497 18.478808 19.752843 C 18.753724 19.784262 19.197517 19.827463 19.47636 19.835318 C 19.755203 19.8471 20.198995 19.839245 20.477839 19.819608 C 20.752754 19.799971 21.200474 19.748916 21.47539 19.693932 C 21.754233 19.642877 22.198026 19.53291 22.476869 19.438654 C 22.755712 19.348324 23.199505 19.167665 23.478348 19.02628 C 23.753263 18.884895 24.200983 18.625688 24.475899 18.42932 C 24.754742 18.232952 25.198535 17.875561 25.477378 17.6085 C 25.756221 17.341439 26.200014 16.8623 26.478857 16.508837 C 26.753773 16.159301 27.201493 15.526995 27.476408 15.067493 C 27.755251 14.607991 28.199044 13.791098 28.477887 13.190211 C 28.75673 12.589324 29.200523 11.528934 29.479366 10.747388 C 29.754282 9.965842 30.202002 8.583408 30.476917 7.558365 C 30.755761 6.529395 31.199553 4.718878 31.478396 3.348227 C 31.753312 1.977575 32.201032 -0.441683 32.475948 -2.307183 C 32.754791 -4.17661 33.198584 -7.475599 33.477427 -10.110863 C 33.75627 -12.746127 34.200062 -17.388276 34.478905 -21.29208 C 34.753821 -25.199811 35.201541 -32.002013 35.476457 -38.266165 C 35.7553 -44.534244 36.199093 -54.957479 36.477936 -66.448958 C 36.756779 -77.940436 37.200572 -93.131496 37.479415 -121.086502 C 37.75433 -149.041507 38.20205 -28.746225 38.476966 -267.922937 C 38.755809 -507.103577 39.478445 -1844.930073 39.478445 -1844.930073 " transform="matrix(0.994623,0,0,-0.994623,45.308055,145.806785)"/>
</g>
<g clip-path="url(#clip2)" clip-rule="nonzero">
<path style="fill:none;stroke-width:0.39851;stroke-linecap:round;stroke-linejoin:round;stroke:rgb(0%,0%,0%);stroke-opacity:1;stroke-miterlimit:10;" d="M 39.882964 2043.91832 C 39.882964 2043.91832 40.6056 639.416896 40.884443 389.235699 C 41.159358 139.058429 41.607078 269.026819 41.881994 240.800825 C 42.160837 212.578758 42.60463 197.371989 42.883473 185.813745 C 43.162316 174.255501 43.606109 163.792992 43.884952 157.497422 C 44.159868 151.205778 44.607588 144.38394 44.882503 140.460499 C 45.161347 136.540986 45.605139 131.883127 45.883982 129.240009 C 46.162825 126.59689 46.606618 123.293973 46.885461 121.420619 C 47.160377 119.551192 47.604169 117.120151 47.883013 115.749499 C 48.161856 114.374921 48.605648 112.552622 48.884491 111.523652 C 49.159407 110.498608 49.607127 109.120102 49.882043 108.338556 C 50.160886 107.55701 50.604679 106.492693 50.883522 105.891806 C 51.162365 105.290918 51.606157 104.466171 51.885001 104.006669 C 52.159916 103.54324 52.607636 102.914861 52.882552 102.561398 C 53.161395 102.207935 53.605188 101.724868 53.884031 101.457807 C 54.162874 101.190746 54.606667 100.833356 54.88551 100.636987 C 55.160425 100.436692 55.608145 100.177485 55.883061 100.0361 C 56.161904 99.894715 56.605697 99.706201 56.88454 99.611944 C 57.163383 99.517687 57.607176 99.407721 57.886019 99.352738 C 58.160935 99.297755 58.604727 99.242772 58.88357 99.223135 C 59.162413 99.207425 59.606206 99.207425 59.885049 99.219207 C 60.159965 99.227062 60.607685 99.262409 60.882601 99.297755 C 61.161444 99.333101 61.605236 99.407721 61.88408 99.462704 C 62.162923 99.517687 62.606715 99.623726 62.885558 99.694419 C 63.160474 99.769039 63.608194 99.906497 63.88311 99.996826 C 64.161953 100.087156 64.605746 100.244251 64.884589 100.350289 C 65.163432 100.456328 65.607224 100.636987 65.886068 100.754808 C 66.160983 100.872629 66.608703 101.068998 66.883619 101.198601 C 67.162462 101.328204 67.606255 101.548137 67.885098 101.689522 C 68.163941 101.82698 68.607734 102.062622 68.886577 102.211862 C 69.161492 102.361102 69.609212 102.604599 69.884128 102.765621 C 70.162971 102.922716 70.606764 103.181922 70.885607 103.346871 C 71.160523 103.511821 71.608243 103.782809 71.883159 103.955613 C 72.162002 104.128418 72.605794 104.407261 72.884637 104.583992 C 73.16348 104.764651 73.607273 105.055276 73.886116 105.239863 C 74.161032 105.420522 74.608752 105.722929 74.883668 105.911443 C 75.162511 106.099956 75.606303 106.406291 75.885147 106.602659 C 76.16399 106.7951 76.607782 107.10929 76.886625 107.309586 C 77.161541 107.509881 77.609261 107.827998 77.884177 108.032221 C 78.16302 108.236444 78.606813 108.562416 78.885656 108.770567 C 79.164499 108.978717 79.608291 109.308616 79.887135 109.520694 C 80.16205 109.728844 80.60977 110.070525 80.884686 110.282603 C 81.163529 110.494681 81.607322 110.840289 81.886165 111.056295 C 82.161081 111.2723 82.608801 111.621836 82.883716 111.841768 C 83.162559 112.061701 83.606352 112.411237 83.885195 112.635097 C 84.164038 112.855029 84.607831 113.21242 84.886674 113.43628 C 85.16159 113.664067 85.60931 114.021458 85.884225 114.249245 C 86.163069 114.477032 86.606861 114.83835 86.885704 115.070065 C 87.164547 115.297852 87.60834 115.667025 87.887183 115.894812 C 88.162099 116.126527 88.609819 116.499627 88.884735 116.731341 C 89.163578 116.963056 89.60737 117.336156 89.886213 117.571798 C 90.165057 117.803513 90.608849 118.18054 90.887692 118.416182 C 91.162608 118.651824 91.610328 119.032779 91.885244 119.272349 C 92.164087 119.507991 92.60788 119.888945 92.886723 120.128515 C 93.161638 120.368084 93.609358 120.752966 93.884274 120.992536 C 94.163117 121.232105 94.60691 121.620915 94.885753 121.860484 C 95.164596 122.103981 95.608389 122.49279 95.887232 122.73236 C 96.162148 122.975857 96.609868 123.368593 96.884783 123.61209 C 97.163626 123.855587 97.607419 124.248324 97.886262 124.495748 C 98.165105 124.739245 98.608898 125.131982 98.887741 125.379406 C 99.162657 125.62683 99.610377 126.023494 99.885292 126.270918 C 100.164136 126.514415 100.607928 126.915007 100.886771 127.162431 C 101.165614 127.409855 101.609407 127.810447 101.88825 128.057871 C 102.163166 128.309222 102.610886 128.709814 102.885802 128.957238 C 103.164645 129.20859 103.608437 129.609181 103.88728 129.860533 C 104.162196 130.111884 104.609916 130.516403 104.884832 130.767755 C 105.163675 131.019106 105.607468 131.423625 105.886311 131.674977 C 106.165154 131.930256 106.608947 132.334775 106.88779 132.586126 C 107.162705 132.841405 107.610425 133.249851 107.885341 133.501203 C 108.164184 133.756482 108.607977 134.164928 108.88682 134.420207 C 109.165663 134.671559 109.609456 135.083932 109.888299 135.339211 C 110.163215 135.59449 110.610935 136.002936 110.88585 136.258215 C 111.164693 136.513494 111.608486 136.925868 111.887329 137.181147 C 112.166172 137.440353 112.609965 137.852727 112.888808 138.108006 C 113.163724 138.367212 113.611444 138.779586 113.886359 139.034864 C 114.165203 139.294071 114.608995 139.706444 114.887838 139.965651 C 115.162754 140.224857 115.610474 140.637231 115.88539 140.896437 C 116.164233 141.155643 116.608025 141.571944 116.886869 141.831151 C 117.165712 142.090357 117.609504 142.50273 117.888347 142.765864 C 118.163263 143.02507 118.610983 143.441371 118.885899 143.700578 C 119.164742 143.959784 119.608535 144.376085 119.887378 144.639219 C 120.166221 144.898425 120.610014 145.318653 120.888857 145.57786 C 121.163772 145.840993 121.611492 146.257294 121.886408 146.520428 C 122.165251 146.779634 122.609044 147.199863 122.887887 147.462996 C 123.16673 147.722203 123.610523 148.142431 123.889366 148.405565 C 124.164282 148.668698 124.612002 149.088927 124.886917 149.35206 C 125.16576 149.615194 125.609553 150.035422 125.888396 150.298556 C 126.167239 150.56169 126.611032 150.981918 126.885948 151.245052 C 127.164791 151.508185 127.608583 151.932341 127.887426 152.195475 C 128.16627 152.458608 128.610062 152.878837 128.888905 153.145898 C 129.163821 153.409031 129.611541 153.82926 129.886457 154.096321 C 130.1653 154.359454 130.609092 154.78361 130.887936 155.046744 C 131.166779 155.309878 131.610571 155.737961 131.889414 156.001094 C 132.16433 156.264228 132.61205 156.688384 132.886966 156.955445 C 133.165809 157.218578 133.609602 157.646662 133.888445 157.909795 C 134.167288 158.176856 134.61108 158.601012 134.889924 158.868073 C 135.164839 159.131207 135.612559 159.55929 135.887475 159.822423 C 136.166318 160.089484 136.610111 160.51364 136.888954 160.780701 C 137.167797 161.047762 137.61159 161.471918 137.886505 161.738979 C 138.165349 162.00604 138.887984 162.701184 138.887984 162.701184 " transform="matrix(0.994623,0,0,-0.994623,45.308055,145.806785)"/>
</g>
<g clip-path="url(#clip3)" clip-rule="nonzero">
<path style="fill:none;stroke-width:0.39851;stroke-linecap:round;stroke-linejoin:round;stroke:rgb(0%,0%,0%);stroke-opacity:1;stroke-dasharray:2.9888,2.9888;stroke-miterlimit:10;" d="M -39.685512 -19.842881 C -39.685512 -19.842881 -38.526939 -18.684308 -38.083146 -18.240515 C -37.635426 -17.792795 -36.924572 -17.081942 -36.476853 -16.634222 C -36.03306 -16.190429 -35.318279 -15.479575 -34.874486 -15.031856 C -34.430694 -14.588063 -33.715913 -13.873282 -33.27212 -13.429489 C -32.828328 -12.985697 -32.113547 -12.270916 -31.669754 -11.827123 C -31.225961 -11.383331 -30.51118 -10.66855 -30.067388 -10.224757 C -29.619668 -9.777037 -28.908814 -9.066184 -28.461094 -8.618464 C -28.017302 -8.174671 -27.302521 -7.463817 -26.858728 -7.016097 C -26.414936 -6.572305 -25.700155 -5.857524 -25.256362 -5.413731 C -24.812569 -4.969939 -24.097789 -4.255158 -23.653996 -3.811365 C -23.210203 -3.367573 -22.495422 -2.652792 -22.05163 -2.208999 C -21.60391 -1.761279 -20.893056 -1.050425 -20.445336 -0.602705 C -20.001544 -0.158913 -19.286763 0.555868 -18.84297 0.999661 C -18.399178 1.443453 -17.684397 2.158234 -17.240604 2.602027 C -16.796811 3.045819 -16.08203 3.7606 -15.638238 4.204393 C -15.190518 4.648186 -14.479664 5.362967 -14.035872 5.806759 C -13.588152 6.254479 -12.877298 6.965333 -12.429578 7.413053 C -11.985786 7.856845 -11.271005 8.571626 -10.827212 9.015419 C -10.383419 9.459211 -9.668638 10.173992 -9.224846 10.617785 C -8.781053 11.061578 -8.066272 11.776359 -7.62248 12.220151 C -7.17476 12.667871 -6.463906 13.378725 -6.020114 13.822517 C -5.572394 14.270237 -4.86154 14.981091 -4.41382 15.428811 C -3.970027 15.872603 -3.255246 16.587384 -2.811454 17.031177 C -2.367661 17.47497 -1.65288 18.189751 -1.209088 18.633543 C -0.765295 19.077336 -0.0505141 19.792117 0.393278 20.235909 C 0.840998 20.683629 1.551852 21.394483 1.999572 21.838275 C 2.443365 22.285995 3.154218 22.996849 3.601938 23.444569 C 4.045731 23.888362 4.760512 24.603143 5.204304 25.046935 C 5.648097 25.490728 6.362878 26.205509 6.80667 26.649301 C 7.250463 27.093094 7.965244 27.807875 8.409037 28.251667 C 8.856757 28.699387 9.56761 29.410241 10.01533 29.854034 C 10.459123 30.301754 11.169976 31.012607 11.617696 31.460327 C 12.061489 31.90412 12.77627 32.618901 13.220062 33.062693 C 13.663855 33.506486 14.378636 34.221267 14.822429 34.665059 C 15.266221 35.108852 15.981002 35.823633 16.424795 36.267426 C 16.872515 36.715145 17.583368 37.425999 18.031088 37.873719 C 18.474881 38.317512 19.189662 39.028365 19.633454 39.476085 C 20.077247 39.919878 20.792028 40.634659 21.235821 41.078451 C 21.679613 41.522244 22.394394 42.237025 22.838187 42.680817 C 23.281979 43.12461 23.99676 43.839391 24.440553 44.283184 C 24.888273 44.730904 25.599126 45.441757 26.046846 45.889477 C 26.490639 46.33327 27.20542 47.044123 27.649213 47.491843 C 28.093005 47.935636 28.807786 48.650417 29.251579 49.094209 C 29.695371 49.538002 30.410152 50.252783 30.853945 50.696576 C 31.297737 51.140368 32.012518 51.855149 32.456311 52.298942 C 32.904031 52.746662 33.614885 53.457515 34.062604 53.905235 C 34.506397 54.349028 35.221178 55.063809 35.664971 55.507601 C 36.108763 55.951394 36.823544 56.666175 37.267337 57.109968 C 37.711129 57.55376 38.42591 58.268541 38.869703 58.712334 C 39.317423 59.156126 40.028276 59.870907 40.472069 60.3147 C 40.919789 60.76242 41.630643 61.473273 42.078363 61.920993 C 42.522155 62.364786 43.236936 63.079567 43.680729 63.52336 C 44.124521 63.967152 44.839302 64.681933 45.283095 65.125726 C 45.726887 65.569518 46.441668 66.284299 46.885461 66.728092 C 47.333181 67.175812 48.044035 67.886665 48.487827 68.330458 C 48.935547 68.778178 49.646401 69.489032 50.094121 69.936752 C 50.537913 70.380544 51.252694 71.095325 51.696487 71.539118 C 52.140279 71.98291 52.85506 72.697691 53.298853 73.141484 C 53.742646 73.585276 54.457427 74.300057 54.901219 74.74385 C 55.348939 75.19157 56.059793 75.902424 56.507513 76.346216 C 56.951305 76.793936 57.662159 77.50479 58.109879 77.95251 C 58.553671 78.396302 59.268452 79.111083 59.712245 79.554876 C 60.156038 79.998668 60.870819 80.713449 61.314611 81.157242 C 61.758404 81.601035 62.473185 82.315816 62.916977 82.759608 C 63.364697 83.207328 64.075551 83.918182 64.523271 84.361974 C 64.967063 84.809694 65.677917 85.520548 66.125637 85.968268 C 66.56943 86.41206 67.284211 87.126841 67.728003 87.570634 C 68.171796 88.014427 68.886577 88.729208 69.330369 89.173 C 69.774162 89.616793 70.488943 90.331574 70.932735 90.775366 C 71.380455 91.223086 72.091309 91.93394 72.539029 92.38166 C 72.982822 92.825452 73.697603 93.536306 74.141395 93.984026 C 74.585188 94.427819 75.299969 95.142599 75.743761 95.586392 C 76.187554 96.030185 76.902335 96.744966 77.346127 97.188758 C 77.78992 97.632551 78.504701 98.347332 78.948494 98.791124 C 79.396214 99.238844 80.107067 99.949698 80.554787 100.397418 C 80.99858 100.84121 81.713361 101.552064 82.157153 101.999784 C 82.600946 102.443577 83.315727 103.158358 83.759519 103.60215 C 84.203312 104.045943 84.918093 104.760724 85.361886 105.204516 C 85.805678 105.648309 86.520459 106.36309 86.964252 106.806883 C 87.411972 107.254602 88.122825 107.965456 88.570545 108.413176 C 89.014338 108.856969 89.729119 109.57175 90.172911 110.015542 C 90.616704 110.459335 91.331485 111.174116 91.775278 111.617908 C 92.21907 112.061701 92.933851 112.776482 93.377644 113.220274 C 93.825364 113.664067 94.536217 114.378848 94.98001 114.822641 C 95.42773 115.270361 96.138583 115.981214 96.586303 116.428934 C 97.030096 116.872727 97.744877 117.587508 98.188669 118.0313 C 98.632462 118.475093 99.347243 119.189874 99.791036 119.633666 C 100.234828 120.077459 100.949609 120.79224 101.393402 121.236033 C 101.841122 121.683753 102.551975 122.394606 102.995768 122.838399 C 103.443488 123.286119 104.154342 123.996972 104.602061 124.444692 C 105.045854 124.888485 105.760635 125.603266 106.204428 126.047058 C 106.64822 126.490851 107.363001 127.205632 107.806794 127.649425 C 108.250586 128.093217 108.965367 128.807998 109.40916 129.251791 C 109.85688 129.699511 110.567733 130.410364 111.015453 130.854157 C 111.459246 131.301877 112.1701 132.01273 112.61782 132.46045 C 113.061612 132.904243 113.776393 133.619024 114.220186 134.062817 C 114.663978 134.506609 115.378759 135.22139 115.822552 135.665183 C 116.266344 136.108975 116.981125 136.823756 117.424918 137.267549 C 117.872638 137.715269 119.031212 138.869915 119.031212 138.869915 M 39.686595 -19.842881 L 39.686595 138.897407 " transform="matrix(0.994623,0,0,-0.994623,45.308055,145.806785)"/>
</g>
<path style=" stroke:none;fill-rule:nonzero;fill:rgb(0%,0%,0%);fill-opacity:1;" d="M 26.265625 145.808594 C 26.265625 145.421875 25.957031 145.113281 25.574219 145.113281 C 25.1875 145.113281 24.878906 145.421875 24.878906 145.808594 C 24.878906 146.191406 25.1875 146.5 25.574219 146.5 C 25.957031 146.5 26.265625 146.191406 26.265625 145.808594 Z M 26.265625 145.808594 "/>
<g style="fill:rgb(0%,0%,0%);fill-opacity:1;">
  <use xlink:href="#glyph1-1" x="14.337488" y="143.682271"/>
</g>
<g style="fill:rgb(0%,0%,0%);fill-opacity:1;">
  <use xlink:href="#glyph2-1" x="22.044732" y="143.682271"/>
</g>
<path style=" stroke:none;fill-rule:nonzero;fill:rgb(0%,0%,0%);fill-opacity:1;" d="M 85.472656 145.808594 C 85.472656 145.421875 85.164062 145.113281 84.78125 145.113281 C 84.394531 145.113281 84.085938 145.421875 84.085938 145.808594 C 84.085938 146.191406 84.394531 146.5 84.78125 146.5 C 85.164062 146.5 85.472656 146.191406 85.472656 145.808594 Z M 85.472656 145.808594 "/>
<g style="fill:rgb(0%,0%,0%);fill-opacity:1;">
  <use xlink:href="#glyph2-2" x="87.207537" y="153.90401"/>
</g>
<path style=" stroke:none;fill-rule:nonzero;fill:rgb(0%,0%,0%);fill-opacity:1;" d="M 65.738281 145.808594 C 65.738281 145.421875 65.425781 145.113281 65.042969 145.113281 C 64.660156 145.113281 64.351562 145.421875 64.351562 145.808594 C 64.351562 146.191406 64.660156 146.5 65.042969 146.5 C 65.425781 146.5 65.738281 146.191406 65.738281 145.808594 Z M 65.738281 145.808594 "/>
<g style="fill:rgb(0%,0%,0%);fill-opacity:1;">
  <use xlink:href="#glyph2-1" x="62.566751" y="155.936025"/>
</g>
<path style=" stroke:none;fill-rule:nonzero;fill:rgb(0%,0%,0%);fill-opacity:1;" d="M 46 126.070312 C 46 125.6875 45.691406 125.378906 45.308594 125.378906 C 44.925781 125.378906 44.613281 125.6875 44.613281 126.070312 C 44.613281 126.453125 44.925781 126.765625 45.308594 126.765625 C 45.691406 126.765625 46 126.453125 46 126.070312 Z M 46 126.070312 "/>
<g style="fill:rgb(0%,0%,0%);fill-opacity:1;">
  <use xlink:href="#glyph2-1" x="35.894944" y="129.264218"/>
</g>
<path style=" stroke:none;fill-rule:nonzero;fill:rgb(0%,0%,0%);fill-opacity:1;" d="M 65.738281 126.070312 C 65.738281 125.6875 65.425781 125.378906 65.042969 125.378906 C 64.660156 125.378906 64.351562 125.6875 64.351562 126.070312 C 64.351562 126.453125 64.660156 126.765625 65.042969 126.765625 C 65.425781 126.765625 65.738281 126.453125 65.738281 126.070312 Z M 65.738281 126.070312 "/>
<path style="fill:none;stroke-width:0.39851;stroke-linecap:round;stroke-linejoin:round;stroke:rgb(0%,0%,0%);stroke-opacity:1;stroke-dasharray:2.9888,2.9888;stroke-miterlimit:10;" d="M 19.841605 -0.00181813 L 19.841605 19.843172 L 0.000541651 19.843172 " transform="matrix(0.994623,0,0,-0.994623,45.308055,145.806785)"/>
<path style=" stroke:none;fill-rule:nonzero;fill:rgb(0%,0%,0%);fill-opacity:1;" d="M 105.207031 145.808594 C 105.207031 145.421875 104.898438 145.113281 104.515625 145.113281 C 104.132812 145.113281 103.820312 145.421875 103.820312 145.808594 C 103.820312 146.191406 104.132812 146.5 104.515625 146.5 C 104.898438 146.5 105.207031 146.191406 105.207031 145.808594 Z M 105.207031 145.808594 "/>
<g style="fill:rgb(0%,0%,0%);fill-opacity:1;">
  <use xlink:href="#glyph2-3" x="102.038359" y="155.936025"/>
</g>
<path style=" stroke:none;fill-rule:nonzero;fill:rgb(0%,0%,0%);fill-opacity:1;" d="M 46 47.128906 C 46 46.746094 45.691406 46.433594 45.308594 46.433594 C 44.925781 46.433594 44.613281 46.746094 44.613281 47.128906 C 44.613281 47.511719 44.925781 47.820312 45.308594 47.820312 C 45.691406 47.820312 46 47.511719 46 47.128906 Z M 46 47.128906 "/>
<g style="fill:rgb(0%,0%,0%);fill-opacity:1;">
  <use xlink:href="#glyph2-4" x="35.894944" y="50.321002"/>
</g>
<path style=" stroke:none;fill-rule:nonzero;fill:rgb(0%,0%,0%);fill-opacity:1;" d="M 105.207031 47.128906 C 105.207031 46.746094 104.898438 46.433594 104.515625 46.433594 C 104.132812 46.433594 103.820312 46.746094 103.820312 47.128906 C 103.820312 47.511719 104.132812 47.820312 104.515625 47.820312 C 104.898438 47.820312 105.207031 47.511719 105.207031 47.128906 Z M 105.207031 47.128906 "/>
<path style="fill:none;stroke-width:0.39851;stroke-linecap:round;stroke-linejoin:round;stroke:rgb(0%,0%,0%);stroke-opacity:1;stroke-dasharray:2.9888,2.9888;stroke-miterlimit:10;" d="M 59.527659 -0.00181813 L 59.527659 99.211353 L 0.000541651 99.211353 " transform="matrix(0.994623,0,0,-0.994623,45.308055,145.806785)"/>
</g>
</svg>
