<?xml version="1.0" encoding="UTF-8"?>
<svg xmlns="http://www.w3.org/2000/svg" xmlns:xlink="http://www.w3.org/1999/xlink" width="292.367pt" height="108.115pt" viewBox="0 0 292.367 108.115" version="1.2">
<defs>
<g>
<symbol overflow="visible" id="glyph0-0">
<path style="stroke:none;" d=""/>
</symbol>
<symbol overflow="visible" id="glyph0-1">
<path style="stroke:none;" d="M 3.296875 -2.984375 C 3.359375 -3.234375 3.578125 -4.140625 4.28125 -4.140625 C 4.328125 -4.140625 4.5625 -4.140625 4.765625 -4.015625 C 4.5 -3.96875 4.296875 -3.71875 4.296875 -3.484375 C 4.296875 -3.328125 4.40625 -3.140625 4.671875 -3.140625 C 4.890625 -3.140625 5.203125 -3.3125 5.203125 -3.71875 C 5.203125 -4.21875 4.625 -4.359375 4.28125 -4.359375 C 3.71875 -4.359375 3.375 -3.84375 3.25 -3.609375 C 3 -4.265625 2.46875 -4.359375 2.1875 -4.359375 C 1.15625 -4.359375 0.59375 -3.09375 0.59375 -2.84375 C 0.59375 -2.75 0.6875 -2.75 0.71875 -2.75 C 0.796875 -2.75 0.8125 -2.765625 0.84375 -2.859375 C 1.171875 -3.90625 1.828125 -4.140625 2.15625 -4.140625 C 2.34375 -4.140625 2.703125 -4.0625 2.703125 -3.484375 C 2.703125 -3.1875 2.53125 -2.515625 2.15625 -1.140625 C 2 -0.515625 1.65625 -0.109375 1.21875 -0.109375 C 1.171875 -0.109375 0.9375 -0.109375 0.734375 -0.234375 C 0.984375 -0.28125 1.1875 -0.5 1.1875 -0.765625 C 1.1875 -1.03125 0.984375 -1.109375 0.828125 -1.109375 C 0.53125 -1.109375 0.28125 -0.859375 0.28125 -0.546875 C 0.28125 -0.09375 0.78125 0.109375 1.21875 0.109375 C 1.859375 0.109375 2.21875 -0.578125 2.25 -0.640625 C 2.375 -0.28125 2.71875 0.109375 3.3125 0.109375 C 4.328125 0.109375 4.890625 -1.171875 4.890625 -1.40625 C 4.890625 -1.515625 4.8125 -1.515625 4.78125 -1.515625 C 4.6875 -1.515625 4.671875 -1.46875 4.65625 -1.40625 C 4.328125 -0.34375 3.65625 -0.109375 3.34375 -0.109375 C 2.953125 -0.109375 2.796875 -0.421875 2.796875 -0.765625 C 2.796875 -0.984375 2.859375 -1.1875 2.96875 -1.625 Z M 3.296875 -2.984375 "/>
</symbol>
<symbol overflow="visible" id="glyph0-2">
<path style="stroke:none;" d="M 4.796875 -3.765625 C 4.84375 -3.90625 4.84375 -3.921875 4.84375 -3.984375 C 4.84375 -4.171875 4.703125 -4.25 4.546875 -4.25 C 4.453125 -4.25 4.296875 -4.203125 4.203125 -4.046875 C 4.1875 -4 4.109375 -3.6875 4.0625 -3.515625 C 4 -3.265625 3.9375 -2.984375 3.875 -2.71875 L 3.421875 -0.953125 C 3.390625 -0.796875 2.96875 -0.109375 2.3125 -0.109375 C 1.8125 -0.109375 1.703125 -0.546875 1.703125 -0.90625 C 1.703125 -1.359375 1.859375 -1.96875 2.203125 -2.84375 C 2.359375 -3.25 2.40625 -3.359375 2.40625 -3.5625 C 2.40625 -4 2.078125 -4.359375 1.59375 -4.359375 C 0.65625 -4.359375 0.28125 -2.9375 0.28125 -2.84375 C 0.28125 -2.75 0.390625 -2.75 0.40625 -2.75 C 0.5 -2.75 0.515625 -2.765625 0.5625 -2.921875 C 0.828125 -3.84375 1.21875 -4.140625 1.5625 -4.140625 C 1.640625 -4.140625 1.8125 -4.140625 1.8125 -3.828125 C 1.8125 -3.578125 1.703125 -3.328125 1.640625 -3.140625 C 1.25 -2.09375 1.0625 -1.53125 1.0625 -1.0625 C 1.0625 -0.1875 1.6875 0.109375 2.265625 0.109375 C 2.65625 0.109375 2.984375 -0.0625 3.265625 -0.328125 C 3.140625 0.171875 3.015625 0.65625 2.625 1.1875 C 2.375 1.515625 2 1.8125 1.546875 1.8125 C 1.40625 1.8125 0.953125 1.78125 0.796875 1.390625 C 0.953125 1.390625 1.078125 1.390625 1.21875 1.28125 C 1.3125 1.1875 1.40625 1.0625 1.40625 0.875 C 1.40625 0.5625 1.140625 0.515625 1.046875 0.515625 C 0.8125 0.515625 0.5 0.6875 0.5 1.171875 C 0.5 1.65625 0.921875 2.03125 1.546875 2.03125 C 2.5625 2.03125 3.578125 1.125 3.84375 0.015625 Z M 4.796875 -3.765625 "/>
</symbol>
<symbol overflow="visible" id="glyph1-0">
<path style="stroke:none;" d=""/>
</symbol>
<symbol overflow="visible" id="glyph1-1">
<path style="stroke:none;" d="M 2 -3.265625 C 2.0625 -3.390625 2.0625 -3.4375 2.0625 -3.484375 C 2.0625 -3.703125 1.875 -3.875 1.65625 -3.875 C 1.390625 -3.875 1.3125 -3.65625 1.28125 -3.546875 L 0.359375 -0.546875 C 0.359375 -0.53125 0.328125 -0.4375 0.328125 -0.4375 C 0.328125 -0.359375 0.546875 -0.28125 0.609375 -0.28125 C 0.65625 -0.28125 0.65625 -0.296875 0.703125 -0.40625 Z M 2 -3.265625 "/>
</symbol>
<symbol overflow="visible" id="glyph2-0">
<path style="stroke:none;" d=""/>
</symbol>
<symbol overflow="visible" id="glyph2-1">
<path style="stroke:none;" d="M 6.5 -2.265625 C 6.671875 -2.265625 6.859375 -2.265625 6.859375 -2.46875 C 6.859375 -2.671875 6.671875 -2.671875 6.5 -2.671875 L 1.171875 -2.671875 C 1 -2.671875 0.8125 -2.671875 0.8125 -2.46875 C 0.8125 -2.265625 1 -2.265625 1.171875 -2.265625 Z M 6.5 -2.265625 "/>
</symbol>
<symbol overflow="visible" id="glyph2-2">
<path style="stroke:none;" d="M 5.015625 -2.671875 C 4.484375 -3.34375 4.359375 -3.5 4.0625 -3.75 C 3.5 -4.1875 2.953125 -4.359375 2.453125 -4.359375 C 1.296875 -4.359375 0.546875 -3.28125 0.546875 -2.125 C 0.546875 -0.984375 1.28125 0.109375 2.40625 0.109375 C 3.546875 0.109375 4.359375 -0.796875 4.84375 -1.578125 C 5.375 -0.90625 5.5 -0.765625 5.8125 -0.515625 C 6.359375 -0.0625 6.90625 0.109375 7.421875 0.109375 C 8.578125 0.109375 9.328125 -0.984375 9.328125 -2.140625 C 9.328125 -3.265625 8.59375 -4.359375 7.453125 -4.359375 C 6.3125 -4.359375 5.5 -3.46875 5.015625 -2.671875 Z M 5.265625 -2.34375 C 5.671875 -3.046875 6.40625 -4.046875 7.53125 -4.046875 C 8.578125 -4.046875 9.109375 -3.015625 9.109375 -2.140625 C 9.109375 -1.171875 8.4375 -0.359375 7.578125 -0.359375 C 7 -0.359375 6.5625 -0.78125 6.34375 -0.984375 C 6.109375 -1.25 5.875 -1.5625 5.265625 -2.34375 Z M 4.59375 -1.921875 C 4.1875 -1.203125 3.453125 -0.203125 2.34375 -0.203125 C 1.296875 -0.203125 0.765625 -1.234375 0.765625 -2.125 C 0.765625 -3.09375 1.421875 -3.890625 2.296875 -3.890625 C 2.859375 -3.890625 3.3125 -3.46875 3.515625 -3.265625 C 3.765625 -3 3.984375 -2.703125 4.59375 -1.921875 Z M 4.59375 -1.921875 "/>
</symbol>
<symbol overflow="visible" id="glyph3-0">
<path style="stroke:none;" d=""/>
</symbol>
<symbol overflow="visible" id="glyph3-1">
<path style="stroke:none;" d="M 2.90625 -6.3125 C 2.90625 -6.5625 2.90625 -6.578125 2.671875 -6.578125 C 2.0625 -5.9375 1.1875 -5.9375 0.875 -5.9375 L 0.875 -5.640625 C 1.078125 -5.640625 1.65625 -5.640625 2.171875 -5.890625 L 2.171875 -0.78125 C 2.171875 -0.421875 2.140625 -0.3125 1.25 -0.3125 L 0.9375 -0.3125 L 0.9375 0 C 1.28125 -0.03125 2.140625 -0.03125 2.53125 -0.03125 C 2.9375 -0.03125 3.796875 -0.03125 4.140625 0 L 4.140625 -0.3125 L 3.828125 -0.3125 C 2.9375 -0.3125 2.90625 -0.421875 2.90625 -0.78125 Z M 2.90625 -6.3125 "/>
</symbol>
<symbol overflow="visible" id="glyph3-2">
<path style="stroke:none;" d="M 1.25 -0.765625 L 2.296875 -1.78125 C 3.84375 -3.140625 4.4375 -3.671875 4.4375 -4.65625 C 4.4375 -5.78125 3.546875 -6.578125 2.34375 -6.578125 C 1.21875 -6.578125 0.5 -5.671875 0.5 -4.796875 C 0.5 -4.234375 0.984375 -4.234375 1.015625 -4.234375 C 1.1875 -4.234375 1.53125 -4.359375 1.53125 -4.765625 C 1.53125 -5.015625 1.359375 -5.265625 1 -5.265625 C 0.921875 -5.265625 0.90625 -5.265625 0.875 -5.265625 C 1.109375 -5.90625 1.640625 -6.265625 2.21875 -6.265625 C 3.109375 -6.265625 3.53125 -5.46875 3.53125 -4.65625 C 3.53125 -3.875 3.046875 -3.09375 2.5 -2.484375 L 0.609375 -0.359375 C 0.5 -0.25 0.5 -0.234375 0.5 0 L 4.15625 0 L 4.4375 -1.71875 L 4.1875 -1.71875 C 4.140625 -1.421875 4.0625 -0.984375 3.96875 -0.84375 C 3.90625 -0.765625 3.25 -0.765625 3.03125 -0.765625 Z M 1.25 -0.765625 "/>
</symbol>
<symbol overflow="visible" id="glyph3-3">
<path style="stroke:none;" d="M 4.03125 -2.265625 L 6.796875 -2.265625 C 6.9375 -2.265625 7.125 -2.265625 7.125 -2.46875 C 7.125 -2.671875 6.9375 -2.671875 6.796875 -2.671875 L 4.03125 -2.671875 L 4.03125 -5.4375 C 4.03125 -5.5625 4.03125 -5.75 3.84375 -5.75 C 3.640625 -5.75 3.640625 -5.5625 3.640625 -5.4375 L 3.640625 -2.671875 L 0.875 -2.671875 C 0.734375 -2.671875 0.546875 -2.671875 0.546875 -2.46875 C 0.546875 -2.265625 0.734375 -2.265625 0.875 -2.265625 L 3.640625 -2.265625 L 3.640625 0.5 C 3.640625 0.625 3.640625 0.8125 3.84375 0.8125 C 4.03125 0.8125 4.03125 0.625 4.03125 0.5 Z M 4.03125 -2.265625 "/>
</symbol>
<symbol overflow="visible" id="glyph3-4">
<path style="stroke:none;" d="M 4.546875 -3.15625 C 4.546875 -3.953125 4.5 -4.734375 4.140625 -5.46875 C 3.6875 -6.421875 2.890625 -6.578125 2.46875 -6.578125 C 1.875 -6.578125 1.15625 -6.3125 0.75 -5.40625 C 0.4375 -4.71875 0.390625 -3.953125 0.390625 -3.15625 C 0.390625 -2.421875 0.421875 -1.53125 0.828125 -0.78125 C 1.25 0.015625 1.96875 0.21875 2.453125 0.21875 C 2.984375 0.21875 3.75 0.015625 4.171875 -0.921875 C 4.5 -1.609375 4.546875 -2.375 4.546875 -3.15625 Z M 2.453125 0 C 2.078125 0 1.484375 -0.25 1.3125 -1.1875 C 1.203125 -1.78125 1.203125 -2.703125 1.203125 -3.28125 C 1.203125 -3.90625 1.203125 -4.5625 1.28125 -5.09375 C 1.46875 -6.265625 2.21875 -6.359375 2.453125 -6.359375 C 2.78125 -6.359375 3.4375 -6.1875 3.625 -5.203125 C 3.71875 -4.65625 3.71875 -3.90625 3.71875 -3.28125 C 3.71875 -2.53125 3.71875 -1.859375 3.609375 -1.234375 C 3.46875 -0.296875 2.90625 0 2.453125 0 Z M 2.453125 0 "/>
</symbol>
<symbol overflow="visible" id="glyph3-5">
<path style="stroke:none;" d="M 4.4375 -1.984375 C 4.4375 -3.15625 3.625 -4.140625 2.5625 -4.140625 C 2.078125 -4.140625 1.65625 -3.984375 1.296875 -3.640625 L 1.296875 -5.5625 C 1.5 -5.515625 1.828125 -5.4375 2.140625 -5.4375 C 3.359375 -5.4375 4.046875 -6.34375 4.046875 -6.46875 C 4.046875 -6.53125 4.015625 -6.578125 3.953125 -6.578125 C 3.9375 -6.578125 3.921875 -6.578125 3.875 -6.546875 C 3.671875 -6.453125 3.1875 -6.265625 2.53125 -6.265625 C 2.140625 -6.265625 1.671875 -6.328125 1.21875 -6.53125 C 1.140625 -6.5625 1.109375 -6.5625 1.09375 -6.5625 C 1 -6.5625 1 -6.484375 1 -6.328125 L 1 -3.40625 C 1 -3.234375 1 -3.15625 1.140625 -3.15625 C 1.203125 -3.15625 1.21875 -3.1875 1.265625 -3.234375 C 1.375 -3.390625 1.734375 -3.9375 2.53125 -3.9375 C 3.046875 -3.9375 3.296875 -3.46875 3.375 -3.296875 C 3.53125 -2.9375 3.5625 -2.546875 3.5625 -2.046875 C 3.5625 -1.703125 3.5625 -1.109375 3.3125 -0.703125 C 3.078125 -0.3125 2.71875 -0.0625 2.265625 -0.0625 C 1.546875 -0.0625 0.984375 -0.578125 0.8125 -1.171875 C 0.84375 -1.15625 0.875 -1.140625 0.984375 -1.140625 C 1.296875 -1.140625 1.46875 -1.390625 1.46875 -1.625 C 1.46875 -1.859375 1.296875 -2.109375 0.984375 -2.109375 C 0.84375 -2.109375 0.5 -2.046875 0.5 -1.59375 C 0.5 -0.734375 1.171875 0.21875 2.28125 0.21875 C 3.421875 0.21875 4.4375 -0.734375 4.4375 -1.984375 Z M 4.4375 -1.984375 "/>
</symbol>
</g>
</defs>
<g id="surface1">
<g style="fill:rgb(0%,0%,0%);fill-opacity:1;">
  <use xlink:href="#glyph0-1" x="20.739352" y="17.789381"/>
</g>
<g style="fill:rgb(0%,0%,0%);fill-opacity:1;">
  <use xlink:href="#glyph0-2" x="19.578851" y="38.097147"/>
</g>
<g style="fill:rgb(0%,0%,0%);fill-opacity:1;">
  <use xlink:href="#glyph1-1" x="24.77829" y="34.511498"/>
</g>
<g style="fill:rgb(0%,0%,0%);fill-opacity:1;">
  <use xlink:href="#glyph0-2" x="20.964509" y="74.466438"/>
</g>
<path style="fill:none;stroke-width:0.39851;stroke-linecap:butt;stroke-linejoin:miter;stroke:rgb(0%,0%,0%);stroke-opacity:1;stroke-miterlimit:10;" d="M 0.00100012 -19.843674 L 280.631073 -19.843674 " transform="matrix(0.991881,0,0,-0.991881,6.694321,5.821348)"/>
<path style="fill:none;stroke-width:0.39851;stroke-linecap:butt;stroke-linejoin:miter;stroke:rgb(0%,0%,0%);stroke-opacity:1;stroke-miterlimit:10;" d="M 0.00100012 -39.684454 L 280.631073 -39.684454 " transform="matrix(0.991881,0,0,-0.991881,6.694321,5.821348)"/>
<path style="fill:none;stroke-width:0.39851;stroke-linecap:butt;stroke-linejoin:miter;stroke:rgb(0%,0%,0%);stroke-opacity:1;stroke-miterlimit:10;" d="M 0.00100012 -96.379149 L 280.631073 -96.379149 " transform="matrix(0.991881,0,0,-0.991881,6.694321,5.821348)"/>
<path style="fill:none;stroke-width:0.39851;stroke-linecap:butt;stroke-linejoin:miter;stroke:rgb(0%,0%,0%);stroke-opacity:1;stroke-miterlimit:10;" d="M 0.00100012 0.001044 L 0.00100012 -96.379149 L 280.631073 -96.379149 L 280.631073 0.001044 Z M 0.00100012 0.001044 " transform="matrix(0.991881,0,0,-0.991881,6.694321,5.821348)"/>
<path style="fill:none;stroke-width:0.39851;stroke-linecap:butt;stroke-linejoin:miter;stroke:rgb(0%,0%,0%);stroke-opacity:1;stroke-miterlimit:10;" d="M 34.015454 0.001044 L 34.015454 -96.379149 " transform="matrix(0.991881,0,0,-0.991881,6.694321,5.821348)"/>
<g style="fill:rgb(0%,0%,0%);fill-opacity:1;">
  <use xlink:href="#glyph2-1" x="48.519947" y="18.132572"/>
  <use xlink:href="#glyph2-2" x="56.205942" y="18.132572"/>
</g>
<g style="fill:rgb(0%,0%,0%);fill-opacity:1;">
  <use xlink:href="#glyph3-1" x="125.123888" y="18.845734"/>
</g>
<g style="fill:rgb(0%,0%,0%);fill-opacity:1;">
  <use xlink:href="#glyph3-2" x="195.414508" y="18.845734"/>
</g>
<g style="fill:rgb(0%,0%,0%);fill-opacity:1;">
  <use xlink:href="#glyph3-3" x="259.391808" y="18.132572"/>
</g>
<g style="fill:rgb(0%,0%,0%);fill-opacity:1;">
  <use xlink:href="#glyph2-2" x="267.077802" y="18.132572"/>
</g>
<g style="fill:rgb(0%,0%,0%);fill-opacity:1;">
  <use xlink:href="#glyph3-3" x="88.606807" y="37.813469"/>
</g>
<path style="fill:none;stroke-width:1.39478;stroke-linecap:butt;stroke-linejoin:miter;stroke:rgb(0%,0%,0%);stroke-opacity:1;stroke-miterlimit:10;" d="M 121.889079 -20.040586 L 121.889079 -39.487543 " transform="matrix(0.991881,0,0,-0.991881,6.694321,5.821348)"/>
<path style="fill:none;stroke-width:0.59778;stroke-linecap:butt;stroke-linejoin:miter;stroke:rgb(100%,100%,100%);stroke-opacity:1;stroke-miterlimit:10;" d="M 121.889079 -20.040586 L 121.889079 -39.487543 " transform="matrix(0.991881,0,0,-0.991881,6.694321,5.821348)"/>
<g style="fill:rgb(0%,0%,0%);fill-opacity:1;">
  <use xlink:href="#glyph2-1" x="158.897427" y="37.813469"/>
</g>
<g style="fill:rgb(0%,0%,0%);fill-opacity:1;">
  <use xlink:href="#glyph3-4" x="195.4155" y="38.527623"/>
</g>
<g style="fill:rgb(0%,0%,0%);fill-opacity:1;">
  <use xlink:href="#glyph3-3" x="229.188047" y="37.813469"/>
</g>
<path style=" stroke:none;fill-rule:nonzero;fill:rgb(100%,100%,100%);fill-opacity:1;" d="M 46.542969 97.464844 L 68.0625 97.464844 L 68.0625 86.921875 L 46.542969 86.921875 Z M 46.542969 97.464844 "/>
<g style="fill:rgb(0%,0%,0%);fill-opacity:1;">
  <use xlink:href="#glyph2-1" x="48.519947" y="94.664105"/>
  <use xlink:href="#glyph2-2" x="56.205942" y="94.664105"/>
</g>
<path style=" stroke:none;fill-rule:nonzero;fill:rgb(100%,100%,100%);fill-opacity:1;" d="M 46.542969 97.464844 L 68.0625 97.464844 L 68.0625 86.921875 L 46.542969 86.921875 Z M 46.542969 97.464844 "/>
<g style="fill:rgb(0%,0%,0%);fill-opacity:1;">
  <use xlink:href="#glyph2-1" x="48.519947" y="94.664105"/>
  <use xlink:href="#glyph2-2" x="56.205942" y="94.664105"/>
</g>
<path style=" stroke:none;fill-rule:nonzero;fill:rgb(100%,100%,100%);fill-opacity:1;" d="M 123.148438 59.457031 L 132.042969 59.457031 L 132.042969 49.136719 L 123.148438 49.136719 Z M 123.148438 59.457031 "/>
<g style="fill:rgb(0%,0%,0%);fill-opacity:1;">
  <use xlink:href="#glyph3-5" x="125.12488" y="57.481472"/>
</g>
<path style=" stroke:none;fill-rule:nonzero;fill:rgb(100%,100%,100%);fill-opacity:1;" d="M 123.148438 59.457031 L 132.042969 59.457031 L 132.042969 49.136719 L 123.148438 49.136719 Z M 123.148438 59.457031 "/>
<g style="fill:rgb(0%,0%,0%);fill-opacity:1;">
  <use xlink:href="#glyph3-5" x="125.12488" y="57.481472"/>
</g>
<path style="fill:none;stroke-width:0.39851;stroke-linecap:butt;stroke-linejoin:miter;stroke:rgb(0%,0%,0%);stroke-opacity:1;stroke-miterlimit:10;" d="M 65.619713 -79.216362 L 111.555176 -54.444924 " transform="matrix(0.991881,0,0,-0.991881,6.694321,5.821348)"/>
<path style=" stroke:none;fill-rule:nonzero;fill:rgb(0%,0%,0%);fill-opacity:1;" d="M 119.433594 58.695312 C 118.46875 58.992188 116.714844 59.488281 115.25 59.269531 C 116.636719 59.757812 117.011719 60.453125 116.65625 61.878906 C 117.277344 60.53125 118.65625 59.339844 119.433594 58.695312 Z M 119.433594 58.695312 "/>
<path style=" stroke:none;fill-rule:nonzero;fill:rgb(100%,100%,100%);fill-opacity:1;" d="M 189.59375 97.464844 L 206.175781 97.464844 L 206.175781 86.320312 L 189.59375 86.320312 Z M 189.59375 97.464844 "/>
<g style="fill:rgb(0%,0%,0%);fill-opacity:1;">
  <use xlink:href="#glyph2-1" x="191.571962" y="94.664105"/>
</g>
<g style="fill:rgb(0%,0%,0%);fill-opacity:1;">
  <use xlink:href="#glyph3-2" x="199.257957" y="94.664105"/>
</g>
<path style=" stroke:none;fill-rule:nonzero;fill:rgb(100%,100%,100%);fill-opacity:1;" d="M 189.59375 97.464844 L 206.175781 97.464844 L 206.175781 86.320312 L 189.59375 86.320312 Z M 189.59375 97.464844 "/>
<g style="fill:rgb(0%,0%,0%);fill-opacity:1;">
  <use xlink:href="#glyph2-1" x="191.571962" y="94.664105"/>
</g>
<g style="fill:rgb(0%,0%,0%);fill-opacity:1;">
  <use xlink:href="#glyph3-2" x="199.257957" y="94.664105"/>
</g>
<path style="fill:none;stroke-width:0.39851;stroke-linecap:butt;stroke-linejoin:miter;stroke:rgb(0%,0%,0%);stroke-opacity:1;stroke-miterlimit:10;" d="M 130.123909 -53.271332 L 178.540453 -79.173041 " transform="matrix(0.991881,0,0,-0.991881,6.694321,5.821348)"/>
<path style=" stroke:none;fill-rule:nonzero;fill:rgb(0%,0%,0%);fill-opacity:1;" d="M 185.875 85.472656 C 185.097656 84.832031 183.714844 83.644531 183.089844 82.300781 C 183.449219 83.722656 183.078125 84.421875 181.691406 84.914062 C 183.15625 84.6875 184.910156 85.179688 185.875 85.472656 Z M 185.875 85.472656 "/>
<path style=" stroke:none;fill-rule:nonzero;fill:rgb(100%,100%,100%);fill-opacity:1;" d="M 257.414062 59.675781 L 278.9375 59.675781 L 278.9375 49.136719 L 257.414062 49.136719 Z M 257.414062 59.675781 "/>
<g style="fill:rgb(0%,0%,0%);fill-opacity:1;">
  <use xlink:href="#glyph3-3" x="259.392799" y="56.877417"/>
</g>
<g style="fill:rgb(0%,0%,0%);fill-opacity:1;">
  <use xlink:href="#glyph2-2" x="267.078794" y="56.877417"/>
</g>
<path style=" stroke:none;fill-rule:nonzero;fill:rgb(100%,100%,100%);fill-opacity:1;" d="M 257.414062 59.675781 L 278.9375 59.675781 L 278.9375 49.136719 L 257.414062 49.136719 Z M 257.414062 59.675781 "/>
<g style="fill:rgb(0%,0%,0%);fill-opacity:1;">
  <use xlink:href="#glyph3-3" x="259.392799" y="56.877417"/>
</g>
<g style="fill:rgb(0%,0%,0%);fill-opacity:1;">
  <use xlink:href="#glyph2-2" x="267.078794" y="56.877417"/>
</g>
<path style="fill:none;stroke-width:0.39851;stroke-linecap:butt;stroke-linejoin:miter;stroke:rgb(0%,0%,0%);stroke-opacity:1;stroke-miterlimit:10;" d="M 204.863552 -80.319065 L 246.911986 -57.890871 " transform="matrix(0.991881,0,0,-0.991881,6.694321,5.821348)"/>
<path style=" stroke:none;fill-rule:nonzero;fill:rgb(0%,0%,0%);fill-opacity:1;" d="M 253.695312 62.125 C 252.730469 62.417969 250.976562 62.90625 249.511719 62.679688 C 250.894531 63.171875 251.265625 63.871094 250.90625 65.292969 C 251.535156 63.953125 252.917969 62.765625 253.695312 62.125 Z M 253.695312 62.125 "/>
</g>
</svg>
